<svg xmlns="http://www.w3.org/2000/svg" viewBox="0 0 385.38 152.21"><defs><style>.cls-1{fill:#333;}</style></defs><title>logo</title><g id="Layer_2" data-name="Layer 2"><g id="Layer_1-2" data-name="Layer 1"><path class="cls-1" d="M37.58,124.94H2L3.51,119V35.78L2,30H37.58l2.2,13.19L33.6,41.83H16.7L15.33,43.2V70.13L16.7,71.5h4.67L27.28,70V84.83l-5.91-1.51H16.7l-1.37,1.37v26.93L16.7,113H33.6l6.18-1.37Z"/><path class="cls-1" d="M83,111.75l-2.2,13.19H45.27l1.51-5.77V35.92L45.27,30H60.11l-1.37,5.91v75.83l1.37,1.37H76.87Z"/><path class="cls-1" d="M101.86,119.17l1.51,5.77H88.54L90,119.17V35.92L88.54,30h14.84l-1.51,5.91Z"/><path class="cls-1" d="M124.94,119.17l1.51,5.77H111.62l1.51-5.77V35.92L111.62,30h13.33l13.19,50,2.06,8.38L139.64,80V35.92L138.13,30H153l-1.51,5.91v83.25l1.51,5.77H139.64l-13.19-50-2.06-8.38.55,8.38Z"/><path class="cls-1" d="M167.11,124.94,161.2,119V35.92L167.11,30h23.77l5.91,5.91v12l1.51,5.77H183.46L185,47.87V43.2l-1.37-1.37h-9.07l-1.37,1.37v68.41l1.37,1.37h9.07l1.37-1.37V89.36h-3.3l-2.61-12H198.3l-1.51,5.91V119l-5.91,5.91Z"/><path class="cls-1" d="M245.14,30l-1.51,5.91V119l-5.91,5.91H214L208,119V35.92L206.53,30h14.84l-1.51,5.91v75.83l1.37,1.37h9.2l1.37-1.37V35.92L230.3,30Z"/><path class="cls-1" d="M294.59,116.7l2.89,8.24H282.64l1-4-3.16-18.13-1.65-1.65h-10.3l-1.65,1.51-3,18.27,1,4H249.94l2.75-8.11,14-81.46L265.46,30h16.21l-1.24,5.36ZM269.17,88.26l1.24,1h6.32l1.24-.69L274.67,69l-1.1-10.58L272.47,69Z"/><path class="cls-1" d="M308.18,124.94,302.28,119V35.92L308.18,30H332l5.91,5.91v12l1.51,5.77H324.53L326,47.87V43.2l-1.37-1.37H315.6l-1.37,1.37v68.41L315.6,113h9.07l1.37-1.37V89.36h-3.3l-2.61-12h19.23l-1.51,5.91V119L332,124.94Z"/><path class="cls-1" d="M383.19,124.94H347.61l1.51-5.91V35.78L347.61,30h35.58l2.2,13.19-6.18-1.37h-16.9l-1.37,1.37V70.13l1.37,1.37H367L372.88,70V84.83L367,83.32h-4.67l-1.37,1.37v26.93l1.37,1.37h16.9l6.18-1.37Z"/><path class="cls-1" d="M368.1,1.51,384.63,0V14.84L368.1,13.33H129.57l-16.93,1.51V0l16.93,1.51Z"/><path class="cls-1" d="M89.77,1.51,95.54,0V14.84l-5.77-1.51H6.52L.62,14.84V0L6.52,1.51Z"/><path class="cls-1" d="M255.46,138.88,272,137.37v14.84l-16.53-1.51H16.93L0,152.21V137.37l16.93,1.51Z"/><path class="cls-1" d="M378.25,138.88l5.77-1.51v14.84l-5.77-1.51H295l-5.91,1.51V137.37l5.91,1.51Z"/></g></g></svg>